<svg xmlns="http://www.w3.org/2000/svg" xmlns:xlink="http://www.w3.org/1999/xlink" width="0" height="0" style="display:none;"><symbol id="icon-AGGR"></symbol><symbol id="icon-BINANCE"></symbol><symbol id="icon-BINANCE_FUTURES"></symbol><symbol id="icon-BINANCE_US"></symbol><symbol id="icon-BITFINEX"></symbol><symbol id="icon-BITGET"></symbol><symbol viewBox="0 0 1024 1024" id="icon-BITHUMB">
<g transform="scale(0.4096)">
<path d="M312.7,1007.9c-42.1,97.1,3.5,210.6,100.6,251.6c26.9,11.7,56.2,16.4,86.6,15.2h67.9l193.1-675.3l-330,0L312.7,1007.9L312.7,1007.9z"></path>
<path d="M2136.1,860.5c-88.9-177.9-244.6-263.3-464.6-263.3h-409.6l-191.9,678.8h291.4c46.8-7,92.5,17.6,111.2,60.9c21.1,65.5,18.7,136.9-5.8,202.5c-18.7,79.6-57.3,153.3-112.4,214.2c-41,43.3-97.1,67.9-156.8,66.7c-49.2,5.8-96-22.2-114.7-67.9c-18.7-70.2-14-145.1,12.9-213l357-1259.3c23.4-66.7,14.1-139.3-25.7-197.8c-39.8-55-105.3-85.4-173.2-81.9l-396.7,0L386.5,1658.6c-257.5,907,654.2,840.3,654.2,840.3s829.8,18.7,1103.6-943.3C2223.9,1272.4,2221.5,1038.3,2136.1,860.5L2136.1,860.5z"></path>
<path d="M2144.3,1552.1c80.8-280.9,78.4-513.8-8.2-690.5c-88.9-176.7-244.6-261-464.6-261l-309,0l-191.9,675.3h189.6c46.8-7,92.4,17.6,111.2,59.7c21.1,65.5,18.7,135.8-5.8,200.1"></path>
</g>
</symbol><symbol id="icon-BITMART"></symbol><symbol id="icon-BITMEX"></symbol><symbol id="icon-BITSTAMP"></symbol><symbol id="icon-BITUNIX"></symbol><symbol id="icon-BYBIT"></symbol><symbol id="icon-COINBASE"></symbol><symbol id="icon-COINEX"></symbol><symbol viewBox="0 0 897 1024" id="icon-CRYPTOCOM">
<path d="M625.133 824H561.362L485.017 754.667V719.111L564.057 644.444V526.222L667.348 459.556L785.009 547.556L625.133 824ZM361.068 637.333L372.745 526.222L334.123 426.667H562.261L524.537 526.222L535.315 637.333H447.294H361.068ZM413.163 754.667L336.818 824.889H272.149L111.374 547.556L229.934 460.445L334.123 526.222V644.444L413.163 719.111V754.667ZM271.25 221.334H624.235L666.45 399.111H229.934L271.25 221.334ZM448.192 0L0 256V768L448.192 1024L896.384 768V256L448.192 0Z" fill="black"></path>
</symbol><symbol id="icon-DERIBIT"></symbol><symbol id="icon-DYDX"></symbol><symbol id="icon-FTX"></symbol><symbol id="icon-GATEIO"></symbol><symbol id="icon-HITBTC"></symbol><symbol id="icon-HUOBI"></symbol><symbol viewBox="0 0 1024 1024" id="icon-HYPERLIQUID">
<g transform="scale(7.111)">
<path d="M144 71.6991C144 119.306 114.866 134.582 99.5156 120.98C86.8804 109.889 83.1211 86.4521 64.116 84.0456C39.9942 81.0113 37.9057 113.133 22.0334 113.133C3.5504 113.133 0 86.2428 0 72.4315C0 58.3063 3.96809 39.0542 19.736 39.0542C38.1146 39.0542 39.1588 66.5722 62.132 65.1073C85.0007 63.5379 85.4184 34.8689 100.247 22.6271C113.195 12.0593 144 23.4641 144 71.6991Z"></path>
</g>
</symbol><symbol viewBox="0 0 1024 1024" id="icon-HYPERLIQUID_SPOT">
<g transform="scale(7.111)">
<path d="M144 71.6991C144 119.306 114.866 134.582 99.5156 120.98C86.8804 109.889 83.1211 86.4521 64.116 84.0456C39.9942 81.0113 37.9057 113.133 22.0334 113.133C3.5504 113.133 0 86.2428 0 72.4315C0 58.3063 3.96809 39.0542 19.736 39.0542C38.1146 39.0542 39.1588 66.5722 62.132 65.1073C85.0007 63.5379 85.4184 34.8689 100.247 22.6271C113.195 12.0593 144 23.4641 144 71.6991Z"></path>
</g>
</symbol><symbol id="icon-KRAKEN"></symbol><symbol id="icon-KUCOIN"></symbol><symbol id="icon-MEXC"></symbol><symbol id="icon-OKEX"></symbol><symbol id="icon-PHEMEX"></symbol><symbol id="icon-POLONIEX"></symbol><symbol id="icon-UNISWAP"></symbol><symbol viewBox="0 0 1024 1024" id="icon-UPBIT">
<g transform="scale(2.045)">
<circle cx="250.36" cy="250.36" r="250.36"></circle>
<path d="m235.08 340.09 44.66-135.69 21.51 7-15.37-50.79h132.93c24.12 0 36.67 21.55 28 48.05l-8.42 25.64c-.11.33-.23.65-.36 1l-.36.94a70.79 70.79 0 0 1 -9.53 17.66c-12.65 17.2-31.91 28.36-49.06 28.46h-1.27-65.47l-18.94 57.7zm87.11-87.69h35.41c8.86 0 18.66-7.92 21.84-17.65l8.7-26.47c3.2-9.74-1.41-17.65-10.25-17.65h-35.42zm-240.4 87.68a40.37 40.37 0 0 1 -4.52-.41 30.84 30.84 0 0 1 -7.33-1.81c-4.69-1.77-8.85-4.16-12-8.17a29.65 29.65 0 0 1 -4.47-8.07 34.06 34.06 0 0 1 -1.33-4.53c-1.71-7.77-1-15.57 1.14-23.17.18-.66 1.06-3.51 1.06-3.51l42.66-129.77h58.8l-43.3 131.81c-2.36 7.21-.53 13.62 4.64 16.33a10.72 10.72 0 0 0 5.43 1.31h29.07l49.08-149.45h66.5l-48.73 50.79 26.31-7-44.68 135.66z"></path>
</g>
</symbol><symbol id="icon-ada"></symbol><symbol id="icon-add-photo"></symbol><symbol id="icon-bear"></symbol><symbol id="icon-bitcoin"></symbol><symbol id="icon-bps"></symbol><symbol id="icon-btc"></symbol><symbol id="icon-bull"></symbol><symbol id="icon-candlestick"></symbol><symbol id="icon-check"></symbol><symbol id="icon-click"></symbol><symbol id="icon-cog"></symbol><symbol id="icon-coin"></symbol><symbol id="icon-copy-paste"></symbol><symbol id="icon-cross"></symbol><symbol id="icon-dashboard"></symbol><symbol id="icon-dollar"></symbol><symbol id="icon-down-thin"></symbol><symbol id="icon-down"></symbol><symbol id="icon-download"></symbol><symbol id="icon-dropper"></symbol><symbol id="icon-edit"></symbol><symbol id="icon-enlarge"></symbol><symbol id="icon-eos"></symbol><symbol id="icon-eraser"></symbol><symbol id="icon-eth"></symbol><symbol id="icon-euro"></symbol><symbol id="icon-external-link-square-alt"></symbol><symbol id="icon-flash"></symbol><symbol id="icon-flip"></symbol><symbol id="icon-gauge"></symbol><symbol id="icon-github"></symbol><symbol id="icon-hidden"></symbol><symbol id="icon-info"></symbol><symbol id="icon-iota"></symbol><symbol id="icon-lab"></symbol><symbol id="icon-locked"></symbol><symbol id="icon-ltc"></symbol><symbol id="icon-menu"></symbol><symbol id="icon-merge"></symbol><symbol id="icon-minus"></symbol><symbol id="icon-monero"></symbol><symbol id="icon-more"></symbol><symbol id="icon-move"></symbol><symbol id="icon-ms"></symbol><symbol id="icon-music-note"></symbol><symbol id="icon-neo"></symbol><symbol id="icon-pile"></symbol><symbol id="icon-plus"></symbol><symbol id="icon-pound"></symbol><symbol id="icon-refresh"></symbol><symbol id="icon-resize-height"></symbol><symbol id="icon-resize"></symbol><symbol id="icon-save"></symbol><symbol id="icon-search"></symbol><symbol id="icon-skull"></symbol><symbol id="icon-sol"></symbol><symbol id="icon-stamp"></symbol><symbol id="icon-star-filled"></symbol><symbol id="icon-star"></symbol><symbol id="icon-switch"></symbol><symbol id="icon-trash"></symbol><symbol id="icon-trx"></symbol><symbol id="icon-unlocked"></symbol><symbol id="icon-up-thin"></symbol><symbol id="icon-up"></symbol><symbol id="icon-upload"></symbol><symbol id="icon-visible"></symbol><symbol id="icon-volume-high"></symbol><symbol id="icon-volume-medium"></symbol><symbol id="icon-volume-off"></symbol><symbol id="icon-warning"></symbol><symbol id="icon-xmr"></symbol><symbol id="icon-xrp"></symbol><symbol id="icon-yen"></symbol></svg>